<?xml version="1.0" standalone="no"?>
<!DOCTYPE svg PUBLIC "-//W3C//DTD SVG 20010904//EN"
 "http://www.w3.org/TR/2001/REC-SVG-20010904/DTD/svg10.dtd">
<svg version="1.0" xmlns="http://www.w3.org/2000/svg"
 width="864.000000pt" height="298.000000pt" viewBox="0 0 864.000000 298.000000"
 preserveAspectRatio="xMidYMid meet">

<g transform="translate(0.000000,298.000000) scale(0.100000,-0.100000)"
fill="#000000" stroke="none">
<path d="M606 2938 c-27 -190 -35 -582 -16 -779 44 -439 178 -888 373 -1249
130 -239 290 -460 466 -640 58 -59 76 -74 49 -41 -113 139 -146 184 -220 296
-240 362 -350 728 -335 1120 9 234 51 428 143 658 81 202 158 338 367 650 l19
27 -420 0 -420 0 -6 -42z"/>
<path d="M1531 2900 c-386 -520 -551 -1046 -486 -1544 30 -228 100 -444 216
-666 101 -192 266 -427 423 -601 51 -57 51 -54 0 26 -121 191 -236 495 -280
740 -27 150 -25 406 4 552 77 387 296 740 650 1043 203 174 450 338 700 464
61 31 112 59 112 62 0 2 -288 4 -640 4 l-640 0 -59 -80z"/>
<path d="M2341 2284 c-193 -52 -348 -203 -408 -399 -16 -53 -18 -97 -18 -370
0 -337 4 -373 56 -479 83 -169 238 -286 421 -316 39 -6 382 -10 921 -10 l857
0 0 185 0 185 -864 0 -864 0 -53 28 c-43 22 -59 38 -81 81 l-28 53 0 257 c0
157 4 272 11 296 15 52 82 119 134 134 55 15 965 15 1020 0 52 -15 119 -82
134 -134 7 -24 11 -137 11 -287 l0 -248 180 0 180 0 0 278 c0 312 -5 346 -68
466 -70 133 -208 241 -358 280 -88 23 -1099 23 -1183 0z"/>
<path d="M4350 1505 l0 -795 835 0 835 0 0 185 0 185 -652 2 -653 3 -3 608 -2
607 -180 0 -180 0 0 -795z"/>
<path d="M6200 1505 l0 -795 195 0 195 0 2 602 3 602 184 -390 c102 -214 231
-485 287 -602 l103 -212 246 2 246 3 195 410 c108 226 234 491 280 590 47 99
90 184 95 190 5 5 9 -231 9 -593 l0 -602 195 0 195 0 0 795 0 795 -323 0 -323
0 -189 -397 c-104 -219 -233 -488 -286 -597 l-96 -200 -87 180 c-47 98 -176
366 -285 594 l-198 415 -321 3 -322 2 0 -795z"/>
<path d="M1994 524 c-12 -3 -32 -16 -44 -29 -28 -29 -39 -137 -21 -203 15 -55
51 -72 151 -72 l70 0 28 -40 c23 -34 32 -39 66 -40 38 0 38 0 22 22 -39 55
-39 58 -8 69 44 15 57 50 57 150 0 83 -2 90 -28 116 -27 27 -30 28 -150 30
-67 1 -132 -1 -143 -3z m240 -70 c11 -11 16 -35 16 -79 0 -90 -7 -95 -134 -95
-66 0 -106 4 -114 12 -7 7 -12 40 -12 79 0 94 7 99 130 99 76 0 102 -4 114
-16z"/>
<path d="M2380 404 c0 -71 5 -134 11 -146 18 -34 70 -48 177 -48 177 0 192 15
192 200 l0 121 -32 -3 -33 -3 -3 -115 c-2 -94 -6 -117 -19 -127 -11 -8 -50
-13 -105 -13 -123 0 -128 5 -128 150 l0 110 -30 0 -30 0 0 -126z"/>
<path d="M2824 517 c-2 -7 -3 -78 -2 -157 l3 -145 33 -3 32 -3 0 160 0 161
-30 0 c-17 0 -33 -6 -36 -13z"/>
<path d="M2959 504 c-5 -15 -8 -86 -7 -158 l3 -131 33 -3 32 -3 0 126 c0 80 4
125 10 123 5 -1 52 -57 103 -123 l92 -120 47 -3 c65 -4 69 7 66 175 l-3 138
-30 0 -30 0 -3 -122 c-1 -68 -6 -123 -11 -123 -5 0 -41 44 -81 98 -108 145
-116 152 -167 152 -38 0 -45 -3 -54 -26z"/>
<path d="M3440 523 c-28 -10 -40 -37 -40 -88 0 -77 13 -85 141 -85 57 0 110
-4 117 -9 8 -5 12 -21 10 -37 l-3 -29 -132 -3 -133 -3 0 -29 0 -30 144 0 c178
0 191 6 191 94 0 83 -11 90 -153 96 l-117 5 0 30 0 30 126 3 c126 3 127 3 131
27 3 14 3 27 0 30 -7 7 -262 5 -282 -2z"/>
<path d="M3794 517 c-2 -7 -3 -78 -2 -157 l3 -145 33 -3 32 -3 0 160 0 161
-30 0 c-17 0 -33 -6 -36 -13z"/>
<path d="M3955 518 c-11 -6 -23 -16 -27 -22 -14 -20 -8 -101 8 -124 14 -20 23
-22 122 -22 59 0 113 -4 120 -9 8 -5 12 -21 10 -37 l-3 -29 -132 -3 -133 -3 0
-29 0 -30 145 0 c142 0 147 1 170 25 19 18 25 35 25 70 0 35 -6 52 -25 70 -23
24 -31 25 -134 25 -102 0 -110 1 -116 20 -13 42 9 50 142 50 l124 0 -3 28 -3
27 -135 2 c-88 2 -142 -1 -155 -9z"/>
<path d="M4470 411 c0 -66 4 -131 10 -146 16 -41 64 -55 195 -55 l115 0 0 30
0 30 -108 0 c-148 0 -146 -2 -150 144 l-4 116 -29 0 -29 0 0 -119z"/>
<path d="M4834 517 c-2 -7 -3 -78 -2 -157 l3 -145 33 -3 32 -3 0 160 0 161
-30 0 c-17 0 -33 -6 -36 -13z"/>
<path d="M4983 523 c-10 -3 -13 -45 -13 -159 l0 -154 30 0 30 0 0 126 c0 91 3
125 12 122 6 -2 52 -58 103 -124 89 -116 92 -119 134 -122 69 -5 71 0 71 170
l0 149 -32 -3 -33 -3 -3 -123 c-1 -68 -7 -122 -11 -120 -5 2 -49 55 -97 118
-48 63 -93 118 -98 122 -12 9 -74 9 -93 1z"/>
<path d="M5397 524 c-4 -4 -7 -18 -7 -30 0 -22 4 -23 78 -26 l77 -3 3 -127 3
-128 29 0 29 0 3 128 3 127 78 3 78 3 -3 27 -3 27 -181 3 c-99 1 -183 -1 -187
-4z"/>
<path d="M5904 522 c-11 -7 -174 -295 -174 -306 0 -3 15 -6 34 -6 28 0 38 6
55 35 l20 35 105 0 104 0 21 -35 c16 -28 27 -35 51 -35 16 0 30 4 30 10 0 17
-151 284 -168 298 -17 13 -61 16 -78 4z m78 -114 c18 -35 34 -66 36 -70 2 -5
-30 -8 -72 -8 -42 0 -76 2 -76 5 0 15 68 135 76 135 2 0 18 -28 36 -62z"/>
<path d="M6213 504 c-22 -22 -25 -32 -21 -76 7 -72 19 -78 149 -78 117 0 137
-8 125 -55 l-6 -25 -136 0 -135 0 3 -27 3 -28 153 0 c178 0 182 2 182 90 0 83
-9 89 -147 95 l-118 5 0 30 0 30 128 3 127 3 0 29 0 30 -140 0 c-138 0 -141
-1 -167 -26z"/>
<path d="M6750 510 c-6 -12 -9 -74 -8 -157 l3 -138 30 0 30 0 3 123 c1 67 6
122 10 122 4 0 27 -45 51 -101 56 -127 73 -149 115 -149 43 0 54 14 111 143
27 59 52 107 57 107 4 0 8 -56 8 -125 l0 -125 30 0 31 0 -3 158 -3 157 -34 3
c-69 7 -75 1 -132 -133 -30 -68 -59 -125 -64 -125 -6 0 -33 52 -60 116 -27 64
-55 123 -63 130 -7 8 -33 14 -57 14 -34 0 -47 -5 -55 -20z"/>
<path d="M7290 370 l0 -160 30 0 30 0 0 160 0 160 -30 0 -30 0 0 -160z"/>
<path d="M7400 500 l0 -30 75 0 74 0 3 -127 3 -128 33 -3 32 -3 0 130 0 131
75 0 75 0 0 30 0 30 -185 0 -185 0 0 -30z"/>
<path d="M7820 371 l0 -161 30 0 c29 0 30 1 30 50 l0 50 79 0 79 0 37 -50 c32
-43 41 -50 71 -50 19 0 34 3 34 6 0 4 -16 27 -36 51 l-36 43 31 29 c27 26 31
35 31 84 0 39 -5 62 -19 78 -18 23 -25 24 -175 27 l-156 3 0 -160z m281 75 c7
-14 9 -36 5 -50 -8 -31 -40 -38 -146 -34 l-75 3 -3 39 c-6 65 -4 66 108 66 97
0 101 -1 111 -24z"/>
<path d="M8384 522 c-11 -7 -174 -295 -174 -306 0 -3 15 -6 34 -6 28 0 38 6
55 35 l20 35 105 0 104 0 21 -35 c17 -30 26 -35 56 -35 l36 0 -29 53 c-16 28
-55 98 -86 153 -31 56 -63 105 -72 108 -21 8 -56 7 -70 -2z m78 -114 c18 -35
34 -66 36 -70 2 -5 -30 -8 -72 -8 -42 0 -76 2 -76 5 0 15 68 135 76 135 2 0
18 -28 36 -62z"/>
</g>
</svg>
